<svg xmlns="http://www.w3.org/2000/svg" width="128" height="128" viewBox="0 0 128 128">
  <rect width="128" height="128" fill="#f3f2f2"/>
  <circle cx="98" cy="30" r="16" fill="#ec3013"/>
  <rect x="0" y="104" width="128" height="4" fill="#201e1d"/>
  <g transform="translate(58 104) scale(0.42)">
    <rect x="-54" y="-58" width="22" height="58" fill="#ae1800"/>
    <rect x="22" y="-58" width="22" height="58" fill="#ae1800"/>
    <rect x="-76" y="-132" width="128" height="80" fill="#ec3013"/>
    <rect x="-54" y="-154" width="60" height="22" fill="#f3f2f2" stroke="#201e1d" stroke-width="4"/>
    <rect x="-26" y="-204" width="5" height="50" fill="#201e1d"/>
    <path d="M-21 -204 L14 -194 L-21 -182 Z" fill="#201e1d"/>
    <rect x="-68" y="-60" width="24" height="60" fill="#ec3013"/>
    <rect x="12" y="-60" width="24" height="60" fill="#ec3013"/>
    <rect x="36" y="-148" width="54" height="66" fill="#ec3013"/>
    <rect x="28" y="-140" width="26" height="50" fill="#ae1800"/>
    <path d="M82 -90 L126 -82 L82 -80 Z" fill="#fff" stroke="#201e1d" stroke-width="3"/>
    <path d="M86 -106 L98 -72 L96 -36 L108 -22" fill="none" stroke="#ec3013" stroke-width="16"/>
  </g>
</svg>
